<svg width="103" height="44" viewBox="0 0 103 44" fill="none" xmlns="http://www.w3.org/2000/svg">
<path d="M28.6924 6.72059V0.867645H51.9803V10.4412H45.4334V6.64706H39.1207V11.1176H44.5399V16.5147H39.1207V21.3529H45.5505V17.0735H52.0975V27.1324H28.6924V21.2794H31.4606V6.72059H28.6924V6.72059Z" fill="black"/>
<path d="M53.4742 6.72059V0.867645H76.7621V10.4412H70.2152V6.64706H63.9025V11.1176H69.3217V16.5147H63.9025V21.3529H70.3323V17.0735H76.8793V27.1324H53.4742V21.2794H56.2424V6.72059H53.4742V6.72059Z" fill="black"/>
<path d="M100.343 16.4706C99.3323 17.5147 97.7651 17.8971 95.451 17.8971H88.6843V21.2794H91.6429V27.1324H78.2707V21.2794H81.0389V6.72059H78.2707V0.867645H95.4656C97.7798 0.867645 99.347 1.25 100.358 2.29412C101.559 3.52941 102.042 4.83824 102.042 9.38236C102.027 13.9265 101.544 15.2353 100.343 16.4706ZM91.8919 12.3529C92.9757 12.3529 93.3858 12.2794 93.6055 12.0588C93.9424 11.6912 94.0156 11.1177 94.0156 9.51471C94.0156 7.89706 93.9424 7.33824 93.6055 6.95588C93.3858 6.7353 92.9757 6.66177 91.8919 6.66177H88.6843V12.3676H91.8919V12.3529Z" fill="black"/>
<path d="M27.3157 6.72059V0.867645H14.1192V6.64706H16.1843L12.098 11.4118H10.4283V6.64706H12.7424V0.867645H9.60808V3.02941H7.90909V0.867645H4.81869V3.02941H3.1197V0.867645H0V6.72059H2.75354V14V21.2794H0V27.1324H12.7424V21.3529H10.4283V16.5882H12.098L16.1843 21.3529H14.1192V27.1324H27.3157V21.2794H25.2652L19.0551 14L25.2652 6.72059H27.3157Z" fill="black"/>
<rect y="29" width="102" height="14" fill="#48DBB4"/>
<path d="M30.2336 33.136V31.6H37.6256V33.136H34.8056V40H33.0656V33.136H30.2336ZM46.6541 35.8C46.6541 36.4 46.5381 36.968 46.3061 37.504C46.0741 38.032 45.7581 38.492 45.3581 38.884C44.9661 39.268 44.4981 39.572 43.9541 39.796C43.4101 40.02 42.8261 40.132 42.2021 40.132C41.5861 40.132 41.0061 40.02 40.4621 39.796C39.9181 39.572 39.4461 39.268 39.0461 38.884C38.6541 38.492 38.3421 38.032 38.1101 37.504C37.8781 36.968 37.7621 36.4 37.7621 35.8C37.7621 35.2 37.8781 34.636 38.1101 34.108C38.3421 33.572 38.6541 33.112 39.0461 32.728C39.4461 32.336 39.9181 32.028 40.4621 31.804C41.0061 31.58 41.5861 31.468 42.2021 31.468C42.8261 31.468 43.4101 31.58 43.9541 31.804C44.4981 32.028 44.9661 32.336 45.3581 32.728C45.7581 33.112 46.0741 33.572 46.3061 34.108C46.5381 34.636 46.6541 35.2 46.6541 35.8ZM44.8661 35.8C44.8661 35.408 44.7981 35.048 44.6621 34.72C44.5261 34.384 44.3381 34.096 44.0981 33.856C43.8661 33.608 43.5861 33.416 43.2581 33.28C42.9301 33.136 42.5781 33.064 42.2021 33.064C41.8261 33.064 41.4741 33.136 41.1461 33.28C40.8261 33.416 40.5461 33.608 40.3061 33.856C40.0741 34.096 39.8901 34.384 39.7541 34.72C39.6181 35.048 39.5501 35.408 39.5501 35.8C39.5501 36.184 39.6181 36.544 39.7541 36.88C39.8901 37.216 40.0741 37.508 40.3061 37.756C40.5461 37.996 40.8261 38.188 41.1461 38.332C41.4741 38.468 41.8261 38.536 42.2021 38.536C42.5781 38.536 42.9301 38.468 43.2581 38.332C43.5861 38.188 43.8661 37.996 44.0981 37.756C44.3381 37.508 44.5261 37.216 44.6621 36.88C44.7981 36.544 44.8661 36.184 44.8661 35.8ZM56.4275 35.8C56.4275 36.4 56.3115 36.968 56.0795 37.504C55.8475 38.032 55.5315 38.492 55.1315 38.884C54.7395 39.268 54.2715 39.572 53.7275 39.796C53.1835 40.02 52.5995 40.132 51.9755 40.132C51.3595 40.132 50.7795 40.02 50.2355 39.796C49.6915 39.572 49.2195 39.268 48.8195 38.884C48.4275 38.492 48.1155 38.032 47.8835 37.504C47.6515 36.968 47.5355 36.4 47.5355 35.8C47.5355 35.2 47.6515 34.636 47.8835 34.108C48.1155 33.572 48.4275 33.112 48.8195 32.728C49.2195 32.336 49.6915 32.028 50.2355 31.804C50.7795 31.58 51.3595 31.468 51.9755 31.468C52.5995 31.468 53.1835 31.58 53.7275 31.804C54.2715 32.028 54.7395 32.336 55.1315 32.728C55.5315 33.112 55.8475 33.572 56.0795 34.108C56.3115 34.636 56.4275 35.2 56.4275 35.8ZM54.6395 35.8C54.6395 35.408 54.5715 35.048 54.4355 34.72C54.2995 34.384 54.1115 34.096 53.8715 33.856C53.6395 33.608 53.3595 33.416 53.0315 33.28C52.7035 33.136 52.3515 33.064 51.9755 33.064C51.5995 33.064 51.2475 33.136 50.9195 33.28C50.5995 33.416 50.3195 33.608 50.0795 33.856C49.8475 34.096 49.6635 34.384 49.5275 34.72C49.3915 35.048 49.3235 35.408 49.3235 35.8C49.3235 36.184 49.3915 36.544 49.5275 36.88C49.6635 37.216 49.8475 37.508 50.0795 37.756C50.3195 37.996 50.5995 38.188 50.9195 38.332C51.2475 38.468 51.5995 38.536 51.9755 38.536C52.3515 38.536 52.7035 38.468 53.0315 38.332C53.3595 38.188 53.6395 37.996 53.8715 37.756C54.1115 37.508 54.2995 37.216 54.4355 36.88C54.5715 36.544 54.6395 36.184 54.6395 35.8ZM57.6212 40V31.6H59.3612V38.464H63.9572V40H57.6212ZM64.4364 38.668L65.4324 37.42C65.9204 37.844 66.3884 38.156 66.8364 38.356C67.2924 38.548 67.7724 38.644 68.2764 38.644C68.7964 38.644 69.2124 38.548 69.5244 38.356C69.8364 38.164 69.9924 37.908 69.9924 37.588C69.9924 37.3 69.8844 37.076 69.6684 36.916C69.4604 36.756 69.1084 36.636 68.6124 36.556L66.9444 36.268C66.2244 36.148 65.6764 35.896 65.3004 35.512C64.9324 35.128 64.7484 34.632 64.7484 34.024C64.7484 33.24 65.0444 32.62 65.6364 32.164C66.2364 31.708 67.0444 31.48 68.0604 31.48C68.6684 31.48 69.2804 31.584 69.8964 31.792C70.5204 32 71.0644 32.288 71.5284 32.656L70.5924 33.952C70.1444 33.608 69.7044 33.356 69.2724 33.196C68.8404 33.028 68.3964 32.944 67.9404 32.944C67.4764 32.944 67.1044 33.032 66.8244 33.208C66.5444 33.376 66.4044 33.604 66.4044 33.892C66.4044 34.148 66.4964 34.348 66.6804 34.492C66.8644 34.636 67.1724 34.74 67.6044 34.804L69.1884 35.068C70.0204 35.204 70.6444 35.472 71.0604 35.872C71.4844 36.264 71.6964 36.784 71.6964 37.432C71.6964 38.248 71.3724 38.9 70.7244 39.388C70.0844 39.876 69.2284 40.12 68.1564 40.12C67.4844 40.12 66.8204 39.992 66.1644 39.736C65.5164 39.48 64.9404 39.124 64.4364 38.668Z" fill="white"/>
</svg>
