<svg width="220" height="181" viewBox="0 0 220 181" fill="none" xmlns="http://www.w3.org/2000/svg">
<mask id="mask0" mask-type="alpha" maskUnits="userSpaceOnUse" x="0" y="0" width="220" height="181">
<path d="M0 0H220V181H0V0Z" fill="#C4C4C4"/>
</mask>
<g mask="url(#mask0)">
<path d="M0 76L110 126L220 76L110 26L0 76Z" fill="#53DDB8"/>
<path d="M86 10.9091L110 21.8182V48L86 37.0909V10.9091Z" fill="#44D0AB"/>
<path d="M86 10.9091L110 21.8182L134 10.9091L110 0L86 10.9091Z" fill="#60D7B7"/>
<path d="M134 10.9091L110 21.8182V48L134 37.0909V10.9091Z" fill="#6DE2C3"/>
<path d="M43 30.9091L67 41.8182V68L43 57.0909V30.9091Z" fill="#44D0AB"/>
<path d="M43 30.9091L67 41.8182L91 30.9091L67 20L43 30.9091Z" fill="#60D7B7"/>
<path d="M91 30.9091L67 41.8182V68L91 57.0909V30.9091Z" fill="#6DE2C3"/>
<path d="M0 49.9091L24 60.8182L48 49.9091L24 39L0 49.9091Z" fill="#60D7B7"/>
<path d="M48 49.9091L24 60.8182V87L48 76.0909V49.9091Z" fill="#6DE2C3"/>
<path d="M43 69.9091L67 80.8182L91 69.9091L67 59L43 69.9091Z" fill="#60D7B7"/>
<path d="M91 69.9091L67 80.8182V107L91 96.0909V69.9091Z" fill="#6DE2C3"/>
<path d="M129 30.9091L153 41.8182V68L129 57.0909V30.9091Z" fill="#44D0AB"/>
<path d="M129 30.9091L153 41.8182L177 30.9091L153 20L129 30.9091Z" fill="#60D7B7"/>
<path d="M177 30.9091L153 41.8182V68L177 57.0909V30.9091Z" fill="#6DE2C3"/>
<path d="M172 49.9091L196 60.8182V87L172 76.0909V49.9091Z" fill="#44D0AB"/>
<path d="M172 49.9091L196 60.8182L220 49.9091L196 39L172 49.9091Z" fill="#60D7B7"/>
<path d="M129 69.9091L153 80.8182V107L129 96.0909V69.9091Z" fill="#44D0AB"/>
<path d="M129 69.9091L153 80.8182L177 69.9091L153 59L129 69.9091Z" fill="#60D7B7"/>
<path fill-rule="evenodd" clip-rule="evenodd" d="M24 60.8182L0 49.9091V76V76.0909V101.364L14 107.727V202.364L110 246V126V99.8182L86 88.9091V115.091L67 106.455V80.8182L43 69.9091V95.5455L24 86.9091V60.8182Z" fill="#41C6A2"/>
<path d="M86 88.9091L110 99.8182L134 88.9091L110 78L86 88.9091Z" fill="#60D7B7"/>
<path fill-rule="evenodd" clip-rule="evenodd" d="M196 60.8182L220 49.9091V76V76.0909V102.364L206 108.727V202.364L110 246V126V99.8182L134 88.9091V115.091L153 106.455V80.8182L177 69.9091V95.5455L196 86.9091V60.8182Z" fill="#6DE2C3"/>
<path d="M96 145.364L110 151.727V246L96 239.636V145.364Z" fill="#5BD7B6"/>
<path d="M124 145.364L110 151.727V246L124 239.636V145.364Z" fill="#52D1AF"/>
</g>
</svg>
